<svg width="1024" height="1024" viewBox="0 0 1024 1024" fill="none" xmlns="http://www.w3.org/2000/svg">
<path d="M184.731 740.484H840.893C849.769 740.484 857.213 733.119 857.213 724.095C857.213 715.289 849.769 707.775 840.893 707.775H184.731C175.705 707.775 168.192 715.289 168.192 724.095C168.192 733.119 175.705 740.484 184.731 740.484ZM216.837 770.453V677.787C216.837 661.078 201.213 655.186 187.757 665.217L126.153 711.645C117.783 718.044 117.714 730.045 126.153 736.594L187.757 783.031C200.625 792.695 216.837 787.4 216.837 770.453ZM808.787 770.453C808.787 787.101 824.7 792.992 837.934 783.031L899.39 736.594C907.98 730.045 907.759 717.825 899.39 711.645L837.934 665.217C824.63 655.186 808.787 661.078 808.787 677.787V770.453Z" fill="white"/>
<path d="M146.215 608.379C160.374 608.379 170.494 601.263 175.48 584.307L197.26 522.226H320.725L342.505 584.307C347.64 601.414 357.611 608.379 371.77 608.379C387.939 608.379 400.118 598.099 400.118 582.02C400.118 575.79 399.183 570.776 396.874 563.87L304.768 308.926C297.514 287.433 283.056 277.463 259.305 277.463C236.759 277.463 222.51 287.503 215.186 308.776L122.174 565.692C119.935 572.11 119 577.334 119 582.656C119 598.816 130.394 608.379 146.215 608.379ZM210.256 479.287L258.201 335.33H260.539L308.484 479.287H210.256ZM459.441 609.074C475.511 609.074 486.248 598.996 486.248 582.317V560.734H486.057C498.112 590.523 525.81 609.225 561.908 609.225C623.072 609.225 661.609 561.83 661.609 486.552C661.609 410.985 622.854 363.662 562.065 363.662C527.542 363.662 499.844 382.213 486.935 412.28H486.982V310.79C486.982 294.082 475.988 283.077 459.878 283.077C443.996 283.077 432.992 294.082 432.992 310.72V582.317C432.992 599.144 443.141 609.074 459.441 609.074ZM547.062 565.201C511.886 565.201 486.845 534.616 486.845 486.552C486.845 438.49 511.886 407.764 547.062 407.764C583.272 407.764 606.313 437.753 606.313 486.552C606.313 535.362 583.342 565.201 547.062 565.201ZM799.924 609.225C844.948 609.225 884.21 585.736 898.22 552.346C900.519 547.094 901.236 542.046 901.236 538.078C901.236 524.832 890.956 515.757 877.932 515.757C866.001 515.757 859.81 520.853 853.174 532.425C842.574 553.447 825.901 565.829 800.563 565.829C764.064 565.829 740.474 536.346 740.474 485.856C740.474 435.804 764.131 405.805 800.77 405.805C824.59 405.805 841.568 417.181 853.014 440.829C858.737 451.338 865.494 455.796 876.719 455.796C889.894 455.796 900.37 447.566 900.37 434.332C900.37 430.163 899.156 425.555 897.724 421.386C885.244 386.792 846.31 362.409 799.338 362.409C729.993 362.409 685.467 411.006 685.467 486.006C685.467 561.721 730.29 609.225 799.924 609.225Z" fill="white"/>
</svg>
